{
	"asset":{
		"generator":"Khronos glTF Blender I/O v5.0.21",
		"version":"2.0"
	},
	"scene":0,
	"scenes":[
		{
			"name":"Scene",
			"nodes":[
				0,
				1,
				2
			]
		}
	],
	"nodes":[
		{
			"mesh":0,
			"name":"Cube",
			"scale":[
				0.6612341403961182,
				1.0935100317001343,
				1
			]
		},
		{
			"mesh":1,
			"name":"\u7acb\u65b9\u4f53",
			"rotation":[
				0,
				0,
				0.03882203623652458,
				0.9992461204528809
			],
			"scale":[
				0.2618102431297302,
				0.7237460017204285,
				0.6745761036872864
			],
			"translation":[
				-0.8259232640266418,
				-0.3504258990287781,
				0
			]
		},
		{
			"mesh":2,
			"name":"\u7acb\u65b9\u4f53.001",
			"rotation":[
				0,
				0,
				0.1359885334968567,
				0.9907104969024658
			],
			"scale":[
				0.16647593677043915,
				0.3883683383464813,
				0.6909725069999695
			],
			"translation":[
				0.5340895652770996,
				0.18253695964813232,
				0
			]
		}
	],
	"materials":[
		{
			"doubleSided":true,
			"name":"Material",
			"pbrMetallicRoughness":{
				"baseColorFactor":[
					0.8000074625015259,
					0.002113626105710864,
					0.0024501581210643053,
					1
				],
				"metallicFactor":0,
				"roughnessFactor":0.5
			}
		},
		{
			"doubleSided":true,
			"name":"\u30de\u30c6\u30ea\u30a2\u30eb",
			"pbrMetallicRoughness":{
				"baseColorFactor":[
					0.007176035083830357,
					0.8000074625015259,
					0.6916201710700989,
					1
				],
				"metallicFactor":0,
				"roughnessFactor":0.5
			}
		}
	],
	"meshes":[
		{
			"name":"Cube",
			"primitives":[
				{
					"attributes":{
						"POSITION":0,
						"NORMAL":1,
						"TEXCOORD_0":2
					},
					"indices":3,
					"material":0
				}
			]
		},
		{
			"name":"\u7acb\u65b9\u4f53",
			"primitives":[
				{
					"attributes":{
						"POSITION":4,
						"NORMAL":5,
						"TEXCOORD_0":6
					},
					"indices":7,
					"material":0
				}
			]
		},
		{
			"name":"\u7acb\u65b9\u4f53.001",
			"primitives":[
				{
					"attributes":{
						"POSITION":8,
						"NORMAL":9,
						"TEXCOORD_0":10
					},
					"indices":11,
					"material":1
				}
			]
		}
	],
	"accessors":[
		{
			"bufferView":0,
			"componentType":5126,
			"count":43,
			"max":[
				1,
				1,
				1
			],
			"min":[
				-1.2556064128875732,
				-1.7942173480987549,
				-1
			],
			"type":"VEC3"
		},
		{
			"bufferView":1,
			"componentType":5126,
			"count":43,
			"type":"VEC3"
		},
		{
			"bufferView":2,
			"componentType":5126,
			"count":43,
			"type":"VEC2"
		},
		{
			"bufferView":3,
			"componentType":5123,
			"count":192,
			"type":"SCALAR"
		},
		{
			"bufferView":4,
			"componentType":5126,
			"count":44,
			"max":[
				1,
				1,
				1
			],
			"min":[
				-1,
				-1,
				-1
			],
			"type":"VEC3"
		},
		{
			"bufferView":5,
			"componentType":5126,
			"count":44,
			"type":"VEC3"
		},
		{
			"bufferView":6,
			"componentType":5126,
			"count":44,
			"type":"VEC2"
		},
		{
			"bufferView":7,
			"componentType":5123,
			"count":180,
			"type":"SCALAR"
		},
		{
			"bufferView":8,
			"componentType":5126,
			"count":27,
			"max":[
				1,
				1,
				1
			],
			"min":[
				-1,
				-1,
				-1
			],
			"type":"VEC3"
		},
		{
			"bufferView":9,
			"componentType":5126,
			"count":27,
			"type":"VEC3"
		},
		{
			"bufferView":10,
			"componentType":5126,
			"count":27,
			"type":"VEC2"
		},
		{
			"bufferView":11,
			"componentType":5123,
			"count":96,
			"type":"SCALAR"
		}
	],
	"bufferViews":[
		{
			"buffer":0,
			"byteLength":516,
			"byteOffset":0,
			"target":34962
		},
		{
			"buffer":0,
			"byteLength":516,
			"byteOffset":516,
			"target":34962
		},
		{
			"buffer":0,
			"byteLength":344,
			"byteOffset":1032,
			"target":34962
		},
		{
			"buffer":0,
			"byteLength":384,
			"byteOffset":1376,
			"target":34963
		},
		{
			"buffer":0,
			"byteLength":528,
			"byteOffset":1760,
			"target":34962
		},
		{
			"buffer":0,
			"byteLength":528,
			"byteOffset":2288,
			"target":34962
		},
		{
			"buffer":0,
			"byteLength":352,
			"byteOffset":2816,
			"target":34962
		},
		{
			"buffer":0,
			"byteLength":360,
			"byteOffset":3168,
			"target":34963
		},
		{
			"buffer":0,
			"byteLength":324,
			"byteOffset":3528,
			"target":34962
		},
		{
			"buffer":0,
			"byteLength":324,
			"byteOffset":3852,
			"target":34962
		},
		{
			"buffer":0,
			"byteLength":216,
			"byteOffset":4176,
			"target":34962
		},
		{
			"buffer":0,
			"byteLength":192,
			"byteOffset":4392,
			"target":34963
		}
	],
	"buffers":[
		{
			"byteLength":4584,
			"uri":"%E5%87%BA%E5%8A%9B2.bin"
		}
	]
}
